<svg id="visual" viewBox="0 0 1920 1080" width="1920" height="1080" xmlns="http://www.w3.org/2000/svg" xmlns:xlink="http://www.w3.org/1999/xlink" version="1.1"><path d="M0 55L160 56.8C320 58.7 640 62.3 960 62.3C1280 62.3 1600 58.7 1760 56.8L1920 55L1920 0L1760 0C1600 0 1280 0 960 0C640 0 320 0 160 0L0 0Z" fill="#595550"></path><path d="M0 293L160 309.2C320 325.3 640 357.7 960 364.8C1280 372 1600 354 1760 345L1920 336L1920 53L1760 54.8C1600 56.7 1280 60.3 960 60.3C640 60.3 320 56.7 160 54.8L0 53Z" fill="#4c4944"></path><path d="M0 368L160 389.7C320 411.3 640 454.7 960 456.5C1280 458.3 1600 418.7 1760 398.8L1920 379L1920 334L1760 343C1600 352 1280 370 960 362.8C640 355.7 320 323.3 160 307.2L0 291Z" fill="#403d38"></path><path d="M0 509L160 523.3C320 537.7 640 566.3 960 569.8C1280 573.3 1600 551.7 1760 540.8L1920 530L1920 377L1760 396.8C1600 416.7 1280 456.3 960 454.5C640 452.7 320 409.3 160 387.7L0 366Z" fill="#34312d"></path><path d="M0 671L160 692.5C320 714 640 757 960 782.2C1280 807.3 1600 814.7 1760 818.3L1920 822L1920 528L1760 538.8C1600 549.7 1280 571.3 960 567.8C640 564.3 320 535.7 160 521.3L0 507Z" fill="#302d29"></path><path d="M0 876L160 897.5C320 919 640 962 960 987.2C1280 1012.3 1600 1019.7 1760 1023.3L1920 1027L1920 820L1760 816.3C1600 812.7 1280 805.3 960 780.2C640 755 320 712 160 690.5L0 669Z" fill="#2b2926"></path><path d="M0 1081L160 1081C320 1081 640 1081 960 1081C1280 1081 1600 1081 1760 1081L1920 1081L1920 1025L1760 1021.3C1600 1017.7 1280 1010.3 960 985.2C640 960 320 917 160 895.5L0 874Z" fill="#272522"></path></svg>