<svg id="visual" viewBox="0 0 2560 1440" width="2560" height="1440" xmlns="http://www.w3.org/2000/svg" xmlns:xlink="http://www.w3.org/1999/xlink" version="1.1"><rect x="0" y="0" width="2560" height="1440" fill="#34312d"></rect><path d="M823 0L842.8 30C862.7 60 902.3 120 897.5 180C892.7 240 843.3 300 793.8 360C744.3 420 694.7 480 715.7 540C736.7 600 828.3 660 811 720C793.7 780 667.3 840 638.3 900C609.3 960 677.7 1020 723.7 1080C769.7 1140 793.3 1200 786.7 1260C780 1320 743 1380 724.5 1410L706 1440L0 1440L0 1410C0 1380 0 1320 0 1260C0 1200 0 1140 0 1080C0 1020 0 960 0 900C0 840 0 780 0 720C0 660 0 600 0 540C0 480 0 420 0 360C0 300 0 240 0 180C0 120 0 60 0 30L0 0Z" fill="#d9c5b2" stroke-linecap="round" stroke-linejoin="miter"></path></svg>